<mxfile host="app.diagrams.net" modified="2023-07-09T04:01:55.324Z" agent="Mozilla/5.0 (Windows NT 10.0; Win64; x64) AppleWebKit/537.36 (KHTML, like Gecko) Chrome/114.0.0.0 Safari/537.36 Edg/114.0.1823.67" version="21.6.1" etag="PK95Z_Jb4DsAbQ0l0N0E" type="github">
  <diagram name="Page-1" id="KwJM2KQOn6n0R-xoqFV5">
    <mxGraphModel>
      <root>
        <mxCell id="0" />
        <mxCell id="1" parent="0" />
      </root>
    </mxGraphModel>
  </diagram>
</mxfile>
